<?xml version="1.0" encoding="utf-8"?>
<!-- Generator: Adobe Illustrator 25.0.1, SVG Export Plug-In . SVG Version: 6.00 Build 0)  -->
<svg version="1.1" xmlns="http://www.w3.org/2000/svg" xmlns:xlink="http://www.w3.org/1999/xlink" x="0px" y="0px"
	 viewBox="0 0 512 394" style="enable-background:new 0 0 512 394;" xml:space="preserve">
<style type="text/css">
	.st0{fill:#FAD607;stroke:#005E7E;stroke-miterlimit:10;}
	.st1{fill:#FFFFFF;stroke:#005E7E;stroke-miterlimit:10;}
	.st2{fill:none;stroke:#3B4A23;stroke-miterlimit:10;}
	.st3{fill:#FAD607;}
	.st4{fill:#FFFFFF;}
	.st5{fill:#005E7E;}
	.st6{fill:#005E7E;stroke:#005E7E;stroke-width:0.75;stroke-miterlimit:10;}
</style>
<g id="Layer_5">
	<g>
		<path class="st0" d="M413.4,34.6c0,0,12.5,3.5,16.5,5.3c4.7,2,17.8,9.9,17.8,9.9s9.3,10.6,11.8,14.5c2.6,4,6.9,12.6,8.6,17.1
			c1.6,4.1,3.9,12.7,4.6,17.1c0.7,4.4,1,13.3,0.7,17.8c-0.3,4.7-1.7,14-3.3,18.4c-1.6,4.3-9.2,15.8-9.2,15.8l10.5,19.7l19.1-12.5
			l11.8,24.3l-28.3,4.6c0,0,3,6.8,3.3,9.2c0.6,4.3-0.8,12.8-1.3,17.1c-0.7,5.8-2.5,17.4-3.9,23c-1.3,5-4.5,15-6.6,19.7
			c-1.9,4.5-6.9,12.9-9.2,17.1c-3,5.4-9.3,16.2-13.2,21.1c-4,5-13.3,13.9-18.4,17.8c-4.2,3.2-18.4,10.5-18.4,10.5s-17.1,8.3-23,10.5
			c-7.4,2.8-22.5,7.7-30.3,9.2c-8.1,1.6-24.7,2.3-32.9,2c-5-0.2-14.9-1.4-19.7-2.6c-6.3-1.6-18.6-6.1-24.3-9.2
			c-4.1-2.3-11.7-8-15.1-11.2c-3.1-2.8-8.8-9-11.2-12.5c-3.5-5.2-9-16.5-11.2-22.4c-3-8-7.2-24.5-8.6-32.9
			c-0.8-4.6-5.4-28.1-3.6-32.4c0.7-1.7,4.1-0.4,5.7-1.3c2.5-1.4,9.3-2,11.7-0.5c3.3,2,1.8,18.6,2.6,22.4c1.9,8.8,8,25.8,11.2,34.2
			c2.8,7.4,9.5,22.1,14.5,28.3c4.1,5.2,14.3,14.4,20.4,17.1c6.6,2.9,21.1,5.4,28.3,5.9c8.7,0.6,26.4-0.4,34.9-2.6
			c7.3-2,20.9-8.6,27.6-11.8c7.8-3.8,23.2-11.5,30.3-16.5c5.4-3.8,15.8-12.4,19.7-17.8c5.5-7.6,12.7-25.2,15.1-34.2
			c2-7.4,5-22.6,5.3-30.3c0.1-4.5-1.3-13.3-2-17.8c-0.8-5.5-2.6-16.4-3.9-21.7c-0.9-3.8-1.7-12.4-4.6-15.1
			c-2.2-2.1-8.9-2.3-11.8-3.3c-5.9-2-17.9-5.8-23-9.2c-5.5-3.7-14.9-13.5-18.4-19.1c-3.3-5.3-7.4-17.5-8.6-23.7
			c-1-5.2-1.2-15.8-0.7-21.1c0.6-6,3.5-17.9,5.3-23.7c1.2-3.9,5.9-15.1,5.9-15.1l-12.5-17.1l28.3-14.5L413.4,34.6z"/>
		<path class="st0" d="M332.5,259l17.1,3.9l18.4,2.6v40.8l-26.3-5.3l-16.5,23l-14.5,11.2l-15.8,8.6c0,0-25.5,7.4-34.2,7.2
			c-10-0.2-30.1-4.9-38.8-9.9c-5.9-3.3-15.2-13.6-19.1-19.1c-3.9-5.5-9.9-17.9-11.8-24.3c-2.1-6.8-3.6-21.2-3.9-28.3
			c-0.4-8.7-2-48.4-2-48.4l21.9,0.9c0,0-2.3,41.1-2.1,50.8c0.1,7.9-0.4,18.3,2.6,25.7c1.7,4,12.4,18.4,15.8,21.1
			c6.7,5.2,17.4,11.3,25.7,13.2c6.6,1.5,20.4,0.8,27-0.7c7.4-1.7,27.6-12.5,27.6-12.5l15.8-24.3l-15.8-7.2l19.1-30.3L332.5,259z"/>
		<path class="st0" d="M110.9,80.5l-0.7,25.7l-0.7,29c0,0-1,28.9,1.3,38.2c1.7,7.1,9.6,20.2,15.1,25c10.5,9.2,49.8,24.1,49.8,24.1
			l-137.3,6.1L16.8,84.5l31.6-2l21.7-0.7l25-2h9.2L110.9,80.5z"/>
		<path class="st0" d="M112.8,83.4l-0.9,24.7l-1,27.9c0,0-1.2,27.9,0.8,36.8c1.6,6.9,9.1,19.6,14.4,24.3c10.1,9,47.9,23.8,47.9,23.8
			l-132.8,4.4L21.7,86.2l30.6-1.6l21-0.4l24.2-1.6l8.9,0.1L112.8,83.4z"/>
		<path class="st0" d="M249.6,220.2l-31.6,2l-38.8,0.7c0,0-21.7-3-28.3-5.9c-6.1-2.7-16.7-10.9-21.5-15.5
			c-4.6-4.3-13.8-13.5-16-19.4c-12-33.4,0-142.1,0-142.1l12.5,0.7l46.7-0.7l37.5,0.7L252.2,53l39.5,19.1l-8.6,41.5l-18.4,74.4
			l-6.6,29L249.6,220.2z"/>
		
			<ellipse transform="matrix(0.4196 -0.9077 0.9077 0.4196 -69.5405 264.0197)" class="st1" cx="171.7" cy="186.4" rx="19.1" ry="60.1"/>
	</g>
	<polygon class="st2" points="27.6,89.2 67.6,86.9 82.4,217.8 45.4,220.1 	"/>
</g>
<g id="Layer_4">
	<ellipse class="st3" cx="354" cy="210" rx="73" ry="70"/>
	<g>
		<g>
			<g>
				<path class="st4" d="M357.5,270.2c-9.3,0-18.4-2-27.1-5.9c-32-14.3-47.4-50.6-34.3-80.9c9.2-21.1,30.7-34.7,54.8-34.7
					c9.3,0,18.4,2,27.1,5.9c32,14.3,47.4,50.6,34.3,80.9C403.1,256.5,381.6,270.2,357.5,270.2z"/>
				<path class="st5" d="M350.9,147.7v2h0c9.2,0,18.1,1.9,26.7,5.8c31.5,14.1,46.7,49.8,33.7,79.6c-4.5,10.4-12,19.1-21.7,25.1
					c-9.5,5.9-20.6,9-32.1,9c-9.2,0-18.2-1.9-26.7-5.8c-31.5-14.1-46.7-49.8-33.7-79.6c4.5-10.4,12-19.1,21.7-25.1
					c9.5-5.9,20.6-9,32.1-9L350.9,147.7 M350.9,147.7c-23.8,0-46,13-55.7,35.3c-13.4,30.8,2.2,67.6,34.8,82.2c9,4,18.4,6,27.5,6
					c23.8,0,46-13,55.7-35.3c13.4-30.8-2.2-67.6-34.8-82.2C369.4,149.6,360,147.7,350.9,147.7L350.9,147.7z"/>
			</g>
		</g>
		<g>
			<path class="st3" d="M294.4,211.3c4.4-0.3,8.7-0.6,13-0.9c0.1,0.7,0.1,1.2,0.2,1.9c-4.3,0.3-8.6,0.6-13,0.9
				C294.5,212.6,294.5,212,294.4,211.3z"/>
			<path class="st3" d="M399.7,208.2c-0.1-0.7-0.1-1.2-0.2-1.9c4.4,0,8.7,0,13.1-0.1c0.1,0.6,0.1,1.2,0.2,1.9
				C408.4,208.2,404.1,208.2,399.7,208.2z"/>
			<path class="st3" d="M389.6,257.6c-0.6,0.4-1,0.6-1.6,1c-2.5-3.6-5-7.2-7.5-10.8c0.5-0.3,1-0.7,1.6-1
				C384.6,250.4,387,254,389.6,257.6z"/>
			<path class="st3" d="M360.6,267.2c-0.7,0-1.2,0-1.9,0.1c-0.3-4.3-0.5-8.5-0.8-12.8c0.7,0,1.2-0.1,1.9-0.1
				C360,258.7,360.3,262.9,360.6,267.2z"/>
			<path class="st3" d="M400.7,177.3c0.4,0.6,0.8,1.1,1.1,1.6c-3.5,2.3-6.9,4.6-10.5,6.9c-0.4-0.5-0.7-1-1.1-1.6
				C393.7,181.9,397.1,179.7,400.7,177.3z"/>
			<path class="st3" d="M306.4,241.6c-0.4-0.6-0.7-1-1.1-1.6c3.6-2.3,7.1-4.5,10.8-6.8c0.4,0.5,0.7,1,1.2,1.6
				C313.5,237.1,310,239.3,306.4,241.6z"/>
			<path class="st3" d="M372.9,169.8c-0.5-0.2-1-0.5-1.6-0.8c1.8-3.7,3.6-7.3,5.4-11c0.4,0.2,0.9,0.5,1.6,0.8
				C376.6,162.4,374.8,166.1,372.9,169.8z"/>
			<path class="st3" d="M349.4,164.4c-0.7,0-1.2,0.1-1.9,0.1c-0.5-4.2-1.1-8.4-1.6-12.6c0.6,0,1.2-0.1,1.9-0.1
				C348.3,156,348.9,160.1,349.4,164.4z"/>
			<path class="st3" d="M311.3,188.1c-0.2,0.4-0.4,0.9-0.7,1.5c-3.9-2-7.8-4-11.7-6c0.2-0.4,0.4-0.9,0.7-1.5
				C303.4,184.1,307.3,186.1,311.3,188.1z"/>
			<path class="st3" d="M334,249.1c0.5,0.3,1,0.5,1.6,0.8c-1.8,3.7-3.6,7.3-5.4,11.1c-0.5-0.2-1-0.5-1.6-0.8
				C330.3,256.5,332.1,252.8,334,249.1z"/>
			<path class="st3" d="M395.8,230.8c0.3-0.5,0.5-1,0.7-1.5c3.9,2,7.8,4,11.8,6c-0.2,0.5-0.5,1-0.7,1.5
				C403.6,234.8,399.7,232.8,395.8,230.8z"/>
			<path class="st3" d="M317.4,161.4c0.5-0.3,1-0.6,1.6-1c2.6,3.5,5.2,7,7.8,10.6c-0.5,0.3-1,0.6-1.6,1
				C322.6,168.5,320,165,317.4,161.4z"/>
			<path class="st3" d="M313.7,164.4c2,2.2,3.9,4.3,5.9,6.5c0.2,0.2,0.1,0.6,0.1,0.9c-0.1,0-0.3,0.1-0.4,0.1
				c-1.1-1.2-2.2-2.4-3.3-3.6c-0.8-0.9-1.7-1.9-2.5-2.8C313,165,313,164.7,313.7,164.4z"/>
			<path class="st3" d="M305.6,192.5c-2.9-1.1-5.8-2.2-8.7-3.2c-0.1-0.7,0.2-0.9,0.8-0.6c2.5,1,5,1.9,7.5,2.8
				C305.9,191.6,306,191.9,305.6,192.5z"/>
			<path class="st3" d="M308.8,168.7c0.3,0,0.7,0,0.9,0.2c2.2,2,4.3,3.9,6.5,5.9c0,0.1,0,0.2-0.1,0.4c-0.3-0.1-0.8,0-1-0.2
				c-2.2-1.9-4.3-3.9-6.4-5.9C308.8,169,308.8,168.8,308.8,168.7z"/>
			<path class="st3" d="M303.8,201.5c0,0.3,0,0.5,0,0.8c-0.2,0-0.3,0-0.4,0c-2.7-0.4-5.5-0.9-8.2-1.4c-0.3-0.1-0.5-0.4-0.8-0.6
				c0.1-0.1,0.1-0.2,0.2-0.3C297.6,200.5,300.6,201,303.8,201.5z"/>
			<path class="st3" d="M295.2,194.6c0.3-0.1,0.6-0.3,0.8-0.2c2.6,0.7,5.3,1.4,7.9,2.1c0.2,0.1,0.4,0.4,0.6,0.6
				c-0.1,0.1-0.1,0.2-0.2,0.3c-3-0.8-6-1.6-9-2.4C295.3,194.9,295.3,194.8,295.2,194.6z"/>
			<path class="st3" d="M312.8,179.1c-0.3,0-0.7,0.1-0.8-0.1c-2.2-1.7-4.4-3.4-6.6-5.1c-0.2-0.1-0.2-0.5-0.2-0.7
				c0.3,0.1,0.6,0,0.8,0.2c2.3,1.8,4.6,3.6,6.9,5.3C312.8,178.8,312.8,178.9,312.8,179.1z"/>
			<path class="st3" d="M413,212.9c-2.9-0.2-5.9-0.3-8.8-0.5c-0.2,0-0.4-0.3-0.6-0.5c0-0.1,0.1-0.2,0.1-0.3c1.4,0.1,2.7,0.1,4.1,0.2
				c1.5,0.1,3.1,0.1,4.6,0.2c0.3,0,0.6,0.3,0.9,0.4C413.1,212.7,413,212.8,413,212.9z"/>
			<path class="st3" d="M302.1,177.8c2.5,1.6,5,3.1,7.5,4.7c0.2,0.1,0.2,0.4,0.4,0.6c-0.2,0-0.5,0.1-0.7,0c-2.4-1.5-4.8-3-7.1-4.5
				c-0.2-0.1-0.2-0.5-0.3-0.7C301.8,177.9,301.9,177.9,302.1,177.8z"/>
			<path class="st3" d="M306.3,222c-0.2,0.2-0.3,0.5-0.6,0.6c-2.7,0.8-5.4,1.5-8.2,2.2c-0.1-0.1-0.2-0.1-0.3-0.2
				c0.2-0.2,0.3-0.6,0.5-0.7c2.7-0.8,5.4-1.5,8.2-2.2C306.1,221.8,306.2,221.9,306.3,222z"/>
			<path class="st3" d="M303.4,207.5c-2.9-0.2-5.7-0.3-8.6-0.5c-0.2,0-0.5-0.3-0.7-0.5c0.1-0.1,0.1-0.2,0.2-0.3
				c2.9,0.2,5.9,0.3,8.8,0.5c0.2,0,0.4,0.3,0.6,0.5C303.6,207.3,303.5,207.4,303.4,207.5z"/>
			<path class="st3" d="M338.7,254.7c0.1,0.2,0.4,0.5,0.3,0.7c-0.8,2.7-1.7,5.3-2.6,7.9c-0.1,0-0.2,0.1-0.3,0.1
				c-0.1-0.3-0.3-0.6-0.3-0.8c0.8-2.6,1.7-5.2,2.6-7.8C338.4,254.8,338.6,254.8,338.7,254.7z"/>
			<path class="st3" d="M362.9,162.3c0.6-2.6,1.1-5.3,1.7-7.9c0.1-0.3,0.4-0.5,0.6-0.8c0.1,0.1,0.2,0.1,0.3,0.2
				c-0.6,2.8-1.2,5.6-1.8,8.4c0,0.2-0.4,0.3-0.6,0.4C363,162.5,363,162.4,362.9,162.3z"/>
			<path class="st3" d="M402.7,221.6c3,0.8,6,1.6,9.1,2.4c0,0.1,0.1,0.2,0.1,0.4c-0.3,0.1-0.6,0.3-0.8,0.2c-2.7-0.7-5.4-1.4-8-2.2
				c-0.2-0.1-0.4-0.4-0.6-0.5C402.5,221.8,402.6,221.7,402.7,221.6z"/>
			<path class="st3" d="M304.8,217.5c-3,0.5-6,0.9-9.1,1.4c-0.1-0.1-0.1-0.2-0.2-0.3c0.2-0.2,0.4-0.5,0.6-0.5c2.7-0.4,5.4-0.8,8-1.2
				c0.2,0,0.5,0.2,0.7,0.3C304.9,217.3,304.9,217.4,304.8,217.5z"/>
			<path class="st3" d="M368.9,163.9c-0.1,0.1-0.3,0.2-0.5,0.3c0-0.2-0.2-0.5-0.1-0.7c0.8-2.5,1.6-5,2.4-7.5
				c0.1-0.2,0.4-0.3,0.6-0.4c0.1,0.2,0.2,0.5,0.2,0.7C370.6,158.8,369.8,161.2,368.9,163.9z"/>
			<path class="st3" d="M403.2,217.2c0.2-0.1,0.5-0.3,0.7-0.3c2.8,0.4,5.5,0.9,8.3,1.4c0.2,0,0.4,0.4,0.6,0.6
				c-0.1,0.1-0.1,0.2-0.2,0.2c-3.1-0.5-6.2-1-9.2-1.5C403.3,217.4,403.2,217.3,403.2,217.2z"/>
			<path class="st3" d="M359.3,152.6c-0.2,2.8-0.4,5.5-0.7,8.3c0,0.2-0.3,0.4-0.4,0.6c-0.1-0.2-0.3-0.4-0.3-0.6
				c0.2-2.6,0.4-5.3,0.6-7.9c0-0.2,0.3-0.4,0.5-0.6C359.1,152.5,359.2,152.6,359.3,152.6z"/>
			<path class="st3" d="M411.5,200.8c-2.9,0.4-5.7,0.8-8.6,1.2c-0.2,0-0.4-0.2-0.7-0.3c0.2-0.1,0.3-0.4,0.5-0.4
				c2.7-0.4,5.4-0.8,8-1.1c0.2,0,0.5,0.2,0.8,0.3C411.6,200.6,411.6,200.7,411.5,200.8z"/>
			<path class="st3" d="M398.4,250.2c-0.2,0-0.6,0.1-0.7-0.1c-2.2-2-4.5-4.1-6.7-6.2c0-0.1,0.1-0.2,0.1-0.3c0.3,0.1,0.6,0.1,0.8,0.3
				c2.2,2,4.3,4,6.5,6C398.4,250,398.4,250.1,398.4,250.2z"/>
			<path class="st3" d="M328.2,166.3c-0.2-0.1-0.6-0.2-0.7-0.3c-1.6-2.5-3.1-5-4.7-7.5c0.1-0.1,0.1-0.2,0.2-0.3
				c0.2,0.1,0.6,0.2,0.7,0.4c1.6,2.5,3.1,4.9,4.6,7.4C328.3,166.1,328.3,166.2,328.2,166.3z"/>
			<path class="st3" d="M332.2,164.2c-1.3-2.8-2.6-5.5-4.1-8.6c0.5,0.2,0.9,0.2,1,0.4c1.2,2.6,2.5,5.1,3.6,7.7
				c0.1,0.2-0.1,0.4-0.2,0.6C332.4,164.3,332.3,164.2,332.2,164.2z"/>
			<path class="st3" d="M314.5,250.4c0-0.2,0-0.6,0.1-0.7c1.8-1.9,3.7-3.8,5.5-5.7c0.1-0.1,0.4-0.1,0.6-0.1c0,0.2,0,0.5-0.1,0.7
				c-1.9,2-3.8,4-5.7,6C314.7,250.5,314.6,250.5,314.5,250.4z"/>
			<path class="st3" d="M324.7,247.1c0,0.3,0.1,0.6-0.1,0.8c-1.6,2.1-3.2,4.2-4.8,6.3c-0.1,0.1-0.4,0.1-0.6,0.2c0-0.2-0.1-0.4,0-0.5
				c1.7-2.3,3.4-4.5,5.1-6.8C324.5,247.1,324.6,247.1,324.7,247.1z"/>
			<path class="st3" d="M384,260.9c-0.2-0.1-0.6-0.2-0.7-0.4c-1.5-2.5-3.1-5.1-4.6-7.6c0.1-0.1,0.1-0.2,0.2-0.3
				c0.2,0.1,0.6,0.2,0.7,0.4c1.5,2.5,3.1,5.1,4.6,7.6C384.2,260.7,384.1,260.8,384,260.9z"/>
			<path class="st3" d="M337.6,162.5c-1.1-2.7-2.3-5.4-3.4-8c-0.1-0.2,0.1-0.4,0.2-0.7c0.2,0.2,0.5,0.3,0.5,0.5
				c0.9,2.6,1.8,5.1,2.7,7.7c0.1,0.2-0.1,0.5-0.1,0.7C337.5,162.7,337.5,162.6,337.6,162.5z"/>
			<path class="st3" d="M397.8,235.8c2.5,1.5,4.9,3,7.2,4.4c0.2,0.1,0.3,0.4,0.4,0.6c-0.2,0-0.5,0.1-0.7,0c-2.3-1.4-4.6-2.8-7-4.3
				c-0.2-0.1-0.3-0.5-0.5-0.7C397.5,235.9,397.8,235.8,397.8,235.8z"/>
			<path class="st3" d="M342.1,161.5c-0.7-3-1.4-5.9-2.1-8.9c0.1-0.1,0.1-0.1,0.2-0.2c0.2,0.2,0.5,0.3,0.6,0.5
				c0.7,2.7,1.3,5.4,1.9,8.1c0,0.2-0.2,0.4-0.3,0.6C342.3,161.6,342.2,161.6,342.1,161.5z"/>
			<path class="st3" d="M352.6,160.9c-0.1-2.8-0.1-5.6-0.2-8.5c0-0.2,0.2-0.4,0.3-0.5c0.1,0.2,0.4,0.4,0.4,0.6
				c0.1,2.7,0.1,5.4,0.2,8.1c0,0.2-0.3,0.4-0.4,0.6C352.8,161,352.7,161,352.6,160.9z"/>
			<path class="st3" d="M310.6,231.4c-0.1,0.2-0.1,0.6-0.3,0.6c-2.4,1.2-4.8,2.4-7.2,3.6c-0.2,0.1-0.5-0.1-0.7-0.1
				c0-0.1,0-0.2,0-0.3c2.7-1.3,5.3-2.6,8-4C310.4,231.3,310.5,231.4,310.6,231.4z"/>
			<path class="st3" d="M317.1,240.5c-2.1,1.8-4.3,3.6-6.5,5.3c-0.1,0.1-0.4,0-0.6,0.1c0-0.2,0-0.5,0.1-0.6c2-1.7,4.1-3.4,6.1-5.1
				c0.1-0.1,0.5,0,0.7,0C317.1,240.3,317.1,240.4,317.1,240.5z"/>
			<path class="st3" d="M299.6,230.2c0.2-0.2,0.3-0.5,0.6-0.6c2.6-1,5.2-1.9,8.1-2.7c-0.1,0.2-0.1,0.5-0.3,0.6c-2.7,1-5.4,2-8.1,3
				C299.8,230.3,299.7,230.3,299.6,230.2z"/>
			<path class="st3" d="M401.7,227.3c-0.1-0.1-0.2-0.3-0.3-0.5c0.2,0,0.5-0.2,0.7-0.1c2.5,0.9,5.1,1.9,7.6,2.8
				c0.2,0.1,0.4,0.4,0.5,0.6c-0.2,0-0.5,0.1-0.7,0.1C406.9,229.3,404.4,228.3,401.7,227.3z"/>
			<path class="st3" d="M386.5,175.2c0.1-0.3,0-0.6,0.2-0.7c1.8-1.9,3.7-3.8,5.6-5.6c0.1-0.1,0.4-0.1,0.7-0.2
				c0.1,0.1,0.1,0.2,0.2,0.3c-2.1,2.1-4.2,4.3-6.4,6.4C386.7,175.3,386.6,175.3,386.5,175.2z"/>
			<path class="st3" d="M387.1,247.1c0.6,0.1,0.9,0,1,0.1c2,2.2,4.1,4.5,6,7c-0.2,0-0.5,0-0.6-0.1
				C391.4,251.9,389.3,249.6,387.1,247.1z"/>
			<path class="st3" d="M387.9,164.6c0,0.2,0,0.5-0.1,0.7c-1.7,2.2-3.5,4.3-5.2,6.4c-0.1,0-0.2,0-0.3-0.1c0-0.2-0.1-0.6,0-0.7
				c1.7-2.2,3.5-4.3,5.2-6.4C387.6,164.5,387.8,164.6,387.9,164.6z"/>
			<path class="st3" d="M401.5,245.8c-2.4-1.8-4.7-3.6-7-5.3c-0.1-0.1-0.1-0.3-0.1-0.5c0.2,0,0.4-0.1,0.5,0c2.3,1.7,4.6,3.5,6.8,5.2
				c0.1,0.1,0.2,0.3,0.2,0.5C401.8,245.7,401.6,245.8,401.5,245.8z"/>
			<path class="st3" d="M409.8,194.4c-0.1,0.2-0.2,0.5-0.4,0.5c-2.8,0.7-5.6,1.4-8.4,2.2c-0.1-0.1-0.1-0.2-0.2-0.2
				c0.2-0.2,0.3-0.5,0.5-0.5c2.8-0.7,5.5-1.4,8.3-2.1C409.6,194.3,409.7,194.4,409.8,194.4z"/>
			<path class="st3" d="M407.6,188.8c-0.2,0.2-0.3,0.5-0.6,0.5c-2.5,1-4.9,1.9-7.4,2.8c-0.2,0.1-0.5-0.1-0.7-0.1
				c0.1-0.2,0.2-0.4,0.4-0.5c2.6-1,5.3-2,8-3C407.4,188.6,407.5,188.7,407.6,188.8z"/>
			<path class="st3" d="M324.5,257.9c0-0.2,0-0.5,0.1-0.6c1.4-2.2,2.7-4.4,4.1-6.7c0.1-0.2,0.3-0.2,0.5-0.3c0,0.2,0.2,0.4,0.1,0.5
				c-1.5,2.4-3,4.8-4.4,7.3C324.8,258,324.6,258,324.5,257.9z"/>
			<path class="st3" d="M347.8,266.3c0.3-2.8,0.5-5.6,0.8-8.4c0-0.2,0.2-0.3,0.4-0.5c0.1,0.2,0.3,0.5,0.3,0.7
				c-0.2,2.6-0.5,5.3-0.8,7.9c0,0.2-0.3,0.4-0.4,0.6C348,266.5,347.9,266.4,347.8,266.3z"/>
			<path class="st3" d="M404.7,183.6c-2.7,1.3-5.4,2.6-8,4c-0.1,0-0.2-0.1-0.2-0.1c0.1-0.2,0.1-0.5,0.3-0.6c2.4-1.2,4.9-2.4,7.3-3.6
				c0.2-0.1,0.5,0.1,0.7,0.2C404.8,183.5,404.8,183.5,404.7,183.6z"/>
			<path class="st3" d="M341.8,265.2c0.4-2.8,1.1-5.5,1.7-8.3c0-0.2,0.3-0.3,0.4-0.5c0.1,0.1,0.2,0.1,0.3,0.2
				c-0.6,2.9-1.2,5.8-1.9,8.7C342.2,265.2,342,265.2,341.8,265.2z"/>
			<path class="st3" d="M390.2,178.9c0.1-0.2,0.1-0.5,0.3-0.7c2-1.7,4-3.3,6.1-5c0.1-0.1,0.4-0.1,0.6-0.1c-0.1,0.2-0.1,0.5-0.2,0.6
				c-2.1,1.8-4.3,3.5-6.5,5.3C390.4,179.1,390.3,179,390.2,178.9z"/>
			<path class="st3" d="M354.3,257.9c0.1,0.2,0.3,0.5,0.3,0.7c0,2.7,0,5.3,0,8c0,0.2-0.2,0.4-0.3,0.5c-0.1-0.1-0.4-0.3-0.4-0.4
				c0-2.9-0.1-5.8-0.1-8.7C354.1,258,354.2,258,354.3,257.9z"/>
			<path class="st3" d="M377.5,168.3c1.6-2.5,3.2-5,4.8-7.6c0.1,0,0.2,0.1,0.3,0.1c0,0.2,0,0.5-0.1,0.7c-1.4,2.2-2.8,4.4-4.2,6.6
				c-0.1,0.2-0.4,0.3-0.6,0.5C377.7,168.5,377.6,168.4,377.5,168.3z"/>
			<path class="st3" d="M369.2,256.2c0.4,0.2,0.7,0.3,0.8,0.4c1,2.8,1.9,5.7,2.9,8.5c-0.1,0.1-0.2,0.1-0.2,0.2
				c-0.2-0.1-0.4-0.2-0.5-0.3C371.2,262.1,370.3,259.3,369.2,256.2z"/>
			<path class="st3" d="M366.6,266.5c-0.1-0.2-0.3-0.4-0.3-0.6c-0.6-2.6-1.1-5.2-1.7-7.8c0-0.2,0.1-0.4,0.2-0.7
				c0.1,0.2,0.4,0.3,0.4,0.5c0.6,2.7,1.2,5.5,1.8,8.2c0,0.1,0,0.2-0.1,0.3C366.8,266.4,366.7,266.5,366.6,266.5z"/>
			<path class="st3" d="M378.9,263.4c-0.9-0.2-4-6.5-4.5-8.8c0.3,0.3,0.6,0.3,0.7,0.5c1.1,2.4,2.2,4.9,3.3,7.3
				C378.5,262.7,378.7,262.9,378.9,263.4z"/>
		</g>
		<g>
			<path class="st5" d="M352.5,213c-4.5,1.8-9,3.7-13.6,5.5c-0.4,0.2-1.2-0.1-1.8-0.2c0-0.2,0-0.4,0.1-0.5c4.4-1.8,8.8-3.6,13.2-5.3
				c0.5-0.2,1.3-0.1,2-0.1C352.4,212.6,352.5,212.8,352.5,213z"/>
			<line class="st6" x1="340.4" y1="216.9" x2="398.4" y2="195.3"/>
			
				<ellipse transform="matrix(1 -3.512902e-03 3.512902e-03 1 -0.7443 1.2379)" class="st5" cx="352" cy="212.5" rx="1.8" ry="1.9"/>
		</g>
		<g>
			<path class="st5" d="M342.4,171.2L342.4,171.2l-0.8,0.6l-0.2-0.5l0.9-0.7l0.5-0.1l0.5,4.8l-0.6,0.1L342.4,171.2z"/>
			<path class="st5" d="M347,174.8l-0.1-1.3l-2.1,0.3l0-0.4l1.8-3.3l0.7-0.1l0.3,3l0.6-0.1l0,0.5l-0.6,0.1l0.1,1.3L347,174.8z
				 M346.8,173l-0.2-1.6c0-0.2,0-0.5-0.1-0.7l0,0c-0.1,0.3-0.2,0.5-0.3,0.8l-1,1.8l0,0L346.8,173z"/>
			<path class="st5" d="M351.5,171.8c0.2,1.6-0.3,2.6-1.4,2.7c-0.9,0.1-1.6-0.7-1.8-2.2c-0.2-1.6,0.4-2.6,1.4-2.7
				C350.7,169.4,351.4,170.2,351.5,171.8z M349,172.2c0.1,1.2,0.6,1.9,1.1,1.8c0.6-0.1,0.9-0.9,0.7-2.1c-0.1-1.2-0.5-1.9-1.1-1.8
				C349.2,170.1,348.9,170.9,349,172.2z"/>
		</g>
		<g>
			<path class="st5" d="M361.7,171.4L361.7,171.4l-0.8,0.5l-0.1-0.5l1-0.6l0.5,0l-0.1,4.8l-0.6,0L361.7,171.4z"/>
			<path class="st5" d="M366.6,171.2c-0.1,0-0.3,0-0.5,0c-1,0.2-1.5,0.9-1.6,1.7l0,0c0.2-0.3,0.6-0.6,1.1-0.6c0.8,0,1.4,0.6,1.4,1.5
				c0,0.9-0.6,1.7-1.6,1.7c-1,0-1.6-0.8-1.6-2c0-0.9,0.4-1.7,0.8-2.2c0.4-0.4,0.9-0.6,1.5-0.7c0.2,0,0.3,0,0.5,0L366.6,171.2z
				 M366.4,174c0-0.7-0.4-1.1-0.9-1.1c-0.4,0-0.7,0.2-0.9,0.6c0,0.1-0.1,0.2-0.1,0.3c0,0.8,0.3,1.4,1,1.4
				C366,175.2,366.4,174.7,366.4,174z"/>
			<path class="st5" d="M370.7,173.1c0,1.6-0.6,2.5-1.7,2.5c-0.9,0-1.5-0.9-1.5-2.5c0-1.6,0.7-2.5,1.7-2.5
				C370.2,170.7,370.7,171.6,370.7,173.1z M368.2,173.2c0,1.2,0.3,2,0.9,2c0.6,0,1-0.8,1-2c0-1.2-0.2-2-0.9-2
				C368.6,171.2,368.2,171.9,368.2,173.2z"/>
		</g>
		<g>
			<path class="st5" d="M376,180.8L376,180.8l-0.8,0.5l-0.1-0.5l1-0.6l0.5,0l0,4.8l-0.6,0L376,180.8z"/>
			<path class="st5" d="M378.3,183.7c0-0.6,0.3-1,0.9-1.3l0,0c-0.5-0.2-0.7-0.6-0.7-1.1c0-0.8,0.6-1.3,1.4-1.3
				c0.9,0,1.3,0.5,1.3,1.1c0,0.4-0.2,0.8-0.8,1.1l0,0c0.6,0.2,0.9,0.6,0.9,1.2c0,0.8-0.7,1.4-1.6,1.4
				C378.9,184.9,378.3,184.4,378.3,183.7z M380.8,183.6c0-0.6-0.4-0.8-1-1c-0.5,0.2-0.8,0.6-0.8,1c0,0.5,0.3,0.9,0.9,0.9
				C380.4,184.4,380.8,184,380.8,183.6z M379,181.2c0,0.5,0.4,0.7,0.9,0.9c0.4-0.2,0.7-0.5,0.7-0.9c0-0.4-0.2-0.8-0.8-0.8
				C379.3,180.4,379,180.8,379,181.2z"/>
			<path class="st5" d="M385,182.2c0,1.6-0.6,2.6-1.6,2.6c-0.9,0-1.5-0.8-1.5-2.4c0-1.6,0.6-2.5,1.6-2.5
				C384.5,179.8,385,180.7,385,182.2z M382.5,182.4c0,1.2,0.4,1.9,1,1.9c0.6,0,0.9-0.8,0.9-2c0-1.2-0.3-1.9-1-1.9
				C382.9,180.3,382.5,181.1,382.5,182.4z"/>
		</g>
		<g>
			<path class="st5" d="M383.2,195.8l0-0.4l0.5-0.5c1.2-1.2,1.7-1.9,1.7-2.6c0-0.5-0.2-0.9-0.9-0.9c-0.4,0-0.8,0.3-1,0.4l-0.2-0.4
				c0.3-0.3,0.8-0.5,1.3-0.5c1,0,1.4,0.7,1.4,1.3c0,0.9-0.6,1.6-1.6,2.6l-0.4,0.4l0,0l2.1-0.1l0,0.5L383.2,195.8z"/>
			<path class="st5" d="M389.9,193.1c0,1.6-0.6,2.6-1.6,2.6c-0.9,0-1.5-0.8-1.5-2.4c0-1.6,0.6-2.5,1.6-2.6
				C389.4,190.7,389.9,191.6,389.9,193.1z M387.4,193.3c0,1.2,0.4,1.9,1,1.9c0.6,0,0.9-0.8,0.9-2c0-1.2-0.3-1.9-1-1.9
				C387.8,191.3,387.4,192,387.4,193.3z"/>
			<path class="st5" d="M393.6,193c0,1.6-0.6,2.6-1.6,2.6c-0.9,0-1.5-0.8-1.5-2.4c0-1.6,0.6-2.5,1.6-2.6
				C393,190.6,393.6,191.5,393.6,193z M391.1,193.2c0,1.2,0.4,1.9,1,1.9c0.6,0,0.9-0.8,0.9-2c0-1.2-0.3-1.9-1-1.9
				C391.4,191.1,391.1,191.9,391.1,193.2z"/>
		</g>
		<g>
			<path class="st5" d="M385.8,209l0-0.4l0.5-0.5c1.2-1.2,1.7-1.8,1.8-2.5c0-0.5-0.2-0.9-0.9-0.9c-0.4,0-0.8,0.2-1,0.4l-0.2-0.5
				c0.3-0.3,0.8-0.5,1.3-0.5c1,0,1.4,0.7,1.4,1.4c0,0.9-0.6,1.6-1.6,2.6l-0.4,0.4l0,0l2.1,0l0,0.5L385.8,209z"/>
			<path class="st5" d="M389.4,209l0-0.4l0.5-0.5c1.2-1.2,1.7-1.8,1.8-2.5c0-0.5-0.2-0.9-0.9-0.9c-0.4,0-0.8,0.2-1,0.4l-0.2-0.5
				c0.3-0.3,0.8-0.5,1.3-0.5c1,0,1.4,0.7,1.4,1.4c0,0.9-0.6,1.6-1.6,2.6l-0.4,0.4l0,0l2.1,0l0,0.5L389.4,209z"/>
			<path class="st5" d="M396.2,206.6c0,1.6-0.6,2.5-1.7,2.5c-0.9,0-1.5-0.9-1.5-2.5c0-1.6,0.7-2.5,1.6-2.5
				C395.7,204.2,396.2,205.1,396.2,206.6z M393.7,206.7c0,1.3,0.3,2,0.9,2c0.6,0,1-0.8,1-2c0-1.2-0.3-2-0.9-2
				C394.1,204.7,393.7,205.4,393.7,206.7z"/>
		</g>
		<g>
			<path class="st5" d="M385.1,221.7l0-0.4l0.5-0.5c1.2-1.2,1.7-1.8,1.7-2.5c0-0.5-0.2-0.9-0.9-0.9c-0.4,0-0.8,0.2-1,0.4l-0.2-0.5
				c0.3-0.3,0.8-0.5,1.3-0.5c1,0,1.4,0.7,1.4,1.4c0,0.9-0.6,1.6-1.6,2.6l-0.4,0.4l0,0l2.1,0l0,0.5L385.1,221.7z"/>
			<path class="st5" d="M390.7,221.6l0-1.3l-2.1,0l0-0.4l2.1-3.1l0.7,0l0,3l0.6,0l0,0.5l-0.6,0l0,1.3L390.7,221.6z M390.7,219.8
				l0-1.6c0-0.3,0-0.5,0-0.8l0,0c-0.1,0.3-0.3,0.5-0.4,0.7l-1.1,1.7l0,0L390.7,219.8z"/>
			<path class="st5" d="M395.5,219.1c0,1.6-0.6,2.5-1.6,2.6c-0.9,0-1.5-0.9-1.5-2.5c0-1.6,0.7-2.5,1.6-2.5
				C394.9,216.7,395.5,217.6,395.5,219.1z M393,219.2c0,1.3,0.4,2,0.9,1.9c0.6,0,0.9-0.8,0.9-2c0-1.2-0.3-2-0.9-1.9
				C393.4,217.2,393,217.9,393,219.2z"/>
		</g>
		<g>
			<path class="st5" d="M382.5,233.4l0-0.4l0.5-0.5c1.2-1.2,1.7-1.8,1.8-2.5c0-0.5-0.2-0.9-0.9-0.9c-0.4,0-0.8,0.2-1,0.4l-0.2-0.5
				c0.3-0.3,0.8-0.5,1.3-0.5c1,0,1.4,0.7,1.4,1.4c0,0.9-0.6,1.6-1.6,2.6l-0.4,0.4l0,0l2.1,0l0,0.5L382.5,233.4z"/>
			<path class="st5" d="M388.9,229.1c-0.1,0-0.3,0-0.5,0c-1,0.2-1.5,0.9-1.6,1.7l0,0c0.2-0.3,0.6-0.6,1.1-0.6c0.8,0,1.4,0.6,1.4,1.5
				c0,0.9-0.6,1.7-1.6,1.7c-1,0-1.6-0.8-1.6-2c0-0.9,0.4-1.7,0.8-2.2c0.4-0.4,0.9-0.6,1.5-0.7c0.2,0,0.3,0,0.5,0L388.9,229.1z
				 M388.7,231.8c0-0.7-0.4-1.1-0.9-1.1c-0.4,0-0.7,0.2-0.9,0.6c0,0.1-0.1,0.2-0.1,0.3c0,0.8,0.3,1.4,1,1.4
				C388.3,233,388.7,232.5,388.7,231.8z"/>
			<path class="st5" d="M392.9,230.9c0,1.6-0.6,2.5-1.7,2.5c-0.9,0-1.5-0.9-1.5-2.5c0-1.6,0.7-2.5,1.7-2.5
				C392.4,228.5,393,229.4,392.9,230.9z M390.4,231c0,1.2,0.3,2,0.9,2c0.6,0,1-0.8,1-2c0-1.2-0.3-2-0.9-2
				C390.9,229,390.5,229.7,390.4,231z"/>
		</g>
		<g>
			<path class="st5" d="M371.8,246l0-0.4l0.5-0.5c1.1-1.2,1.6-1.9,1.6-2.6c0-0.5-0.3-0.9-0.9-0.9c-0.4,0-0.8,0.3-1,0.5l-0.2-0.4
				c0.3-0.3,0.8-0.5,1.3-0.6c1-0.1,1.4,0.6,1.5,1.3c0,0.9-0.6,1.6-1.5,2.7l-0.4,0.4l0,0l2.1-0.1l0,0.5L371.8,246z"/>
			<path class="st5" d="M375.3,244.5c0-0.6,0.3-1.1,0.9-1.3l0,0c-0.5-0.2-0.8-0.6-0.8-1c0-0.8,0.6-1.3,1.4-1.4
				c0.9-0.1,1.4,0.5,1.4,1.1c0,0.4-0.2,0.9-0.7,1.2l0,0c0.6,0.2,1,0.6,1,1.2c0,0.8-0.6,1.4-1.5,1.5
				C375.9,245.8,375.3,245.2,375.3,244.5z M377.8,244.4c0-0.6-0.4-0.8-1-1c-0.5,0.2-0.8,0.6-0.8,1c0,0.5,0.4,0.9,1,0.9
				C377.4,245.2,377.8,244.8,377.8,244.4z M376,242.1c0,0.5,0.4,0.7,0.9,0.8c0.4-0.2,0.7-0.5,0.7-0.9c0-0.4-0.2-0.8-0.8-0.7
				C376.2,241.3,376,241.7,376,242.1z"/>
			<path class="st5" d="M382,242.9c0.1,1.6-0.5,2.6-1.5,2.6c-0.9,0.1-1.5-0.8-1.6-2.4c-0.1-1.6,0.6-2.5,1.5-2.6
				C381.4,240.5,382,241.4,382,242.9z M379.5,243.1c0,1.2,0.4,1.9,1,1.9c0.6,0,0.9-0.8,0.9-2.1c0-1.2-0.4-1.9-1-1.9
				C379.8,241.1,379.5,241.8,379.5,243.1z"/>
		</g>
		<g>
			<path class="st5" d="M353.8,251.5c0.2,0.1,0.6,0.2,1,0.2c0.8,0,1.1-0.5,1-0.8c0-0.6-0.6-0.8-1.2-0.8l-0.3,0l0-0.4l0.3,0
				c0.5,0,1-0.2,1-0.7c0-0.3-0.2-0.6-0.8-0.6c-0.4,0-0.7,0.2-0.9,0.3l-0.2-0.4c0.2-0.2,0.7-0.3,1.2-0.3c0.9,0,1.3,0.4,1.3,0.9
				c0,0.4-0.3,0.8-0.9,1l0,0c0.6,0.1,1,0.5,1,1c0,0.6-0.6,1.2-1.7,1.2c-0.5,0-1-0.1-1.2-0.2L353.8,251.5z"/>
			<path class="st5" d="M360.3,249.9c0,1.4-0.6,2.1-1.6,2.2c-0.9,0-1.5-0.7-1.5-2c0-1.4,0.7-2.1,1.6-2.1
				C359.8,247.9,360.3,248.6,360.3,249.9z M357.8,250c0,1.1,0.4,1.6,0.9,1.6c0.6,0,0.9-0.7,1-1.7c0-1-0.3-1.6-0.9-1.6
				C358.2,248.3,357.8,248.9,357.8,250z"/>
			<path class="st5" d="M364,249.8c0,1.4-0.6,2.1-1.6,2.2c-0.9,0-1.5-0.7-1.5-2c0-1.4,0.7-2.1,1.6-2.1
				C363.4,247.8,364,248.5,364,249.8z M361.5,249.9c0,1.1,0.4,1.6,0.9,1.6c0.6,0,0.9-0.7,1-1.7c0-1-0.3-1.6-0.9-1.6
				C361.9,248.2,361.5,248.8,361.5,249.9z"/>
		</g>
		<g>
			<path class="st5" d="M341.5,242.3c-0.4,1.6-1.2,2.3-2.2,2.1c-0.9-0.2-1.2-1.2-0.9-2.8c0.4-1.6,1.3-2.3,2.2-2
				C341.5,239.8,341.9,240.8,341.5,242.3z M339,241.8c-0.3,1.2-0.1,2,0.4,2.1c0.6,0.2,1.1-0.5,1.4-1.7c0.3-1.1,0.2-2-0.4-2.1
				C339.9,239.9,339.4,240.5,339,241.8z"/>
		</g>
		<g>
			<path class="st5" d="M322.7,240.4l0-0.4l0.5-0.5c1.2-1.1,1.8-1.7,1.9-2.4c0-0.5-0.2-0.9-0.9-1c-0.4,0-0.8,0.2-1,0.4l-0.2-0.5
				c0.3-0.3,0.8-0.5,1.3-0.4c1,0,1.4,0.8,1.3,1.4c-0.1,0.9-0.7,1.6-1.7,2.5l-0.4,0.3l0,0l2.1,0.1l0,0.5L322.7,240.4z"/>
			<path class="st5" d="M329.6,238.2c-0.1,1.6-0.7,2.5-1.8,2.5c-0.9,0-1.5-0.9-1.4-2.5c0.1-1.6,0.8-2.5,1.8-2.4
				C329.2,235.8,329.7,236.7,329.6,238.2z M327.1,238.2c-0.1,1.2,0.2,2,0.8,2c0.6,0,1-0.7,1.1-2c0.1-1.2-0.2-2-0.8-2
				C327.6,236.2,327.2,236.9,327.1,238.2z"/>
		</g>
		<g>
			<path class="st5" d="M312.3,231l0.1-1.3l-2.1-0.1l0-0.4l2.3-2.9l0.7,0l-0.3,3l0.6,0l0,0.5l-0.6,0l-0.1,1.3L312.3,231z
				 M312.5,229.2l0.1-1.6c0-0.3,0.1-0.5,0.1-0.7l0,0c-0.2,0.3-0.3,0.5-0.4,0.7l-1.3,1.6l0,0L312.5,229.2z"/>
			<path class="st5" d="M317.3,228.9c-0.1,1.6-0.8,2.5-1.8,2.4c-0.9-0.1-1.4-1-1.3-2.6c0.1-1.6,0.9-2.4,1.8-2.4
				C317,226.4,317.4,227.4,317.3,228.9z M314.8,228.8c-0.1,1.2,0.2,2,0.8,2c0.6,0,1-0.7,1.1-1.9c0.1-1.2-0.1-2-0.8-2
				C315.4,226.8,314.9,227.5,314.8,228.8z"/>
		</g>
		<g>
			<path class="st5" d="M308.8,214.4c-0.1,0-0.3,0.1-0.5,0.1c-0.9,0.4-1.3,1.2-1.3,2l0,0c0.2-0.3,0.5-0.7,1-0.8
				c0.8-0.2,1.5,0.3,1.6,1.3c0.1,0.9-0.3,1.8-1.2,2c-1,0.2-1.7-0.5-1.9-1.7c-0.1-0.9,0.1-1.7,0.4-2.3c0.3-0.5,0.8-0.8,1.3-1
				c0.2-0.1,0.3-0.1,0.4-0.1L308.8,214.4z M309,217.2c-0.1-0.7-0.5-1-1.1-0.9c-0.4,0.1-0.7,0.4-0.8,0.8c0,0.1,0,0.2,0,0.3
				c0.1,0.8,0.6,1.3,1.2,1.1C308.9,218.4,309.1,217.9,309,217.2z"/>
			<path class="st5" d="M313.1,215.5c0.3,1.6-0.2,2.6-1.2,2.8c-0.9,0.2-1.6-0.6-1.9-2.1c-0.3-1.6,0.3-2.6,1.2-2.8
				C312.2,213.2,312.9,214,313.1,215.5z M310.6,216c0.2,1.2,0.7,1.8,1.2,1.7c0.6-0.1,0.8-0.9,0.6-2.1c-0.2-1.2-0.6-1.9-1.2-1.7
				C310.7,214,310.4,214.8,310.6,216z"/>
		</g>
		<g>
			<path class="st5" d="M306.1,204.3c0-0.6,0.3-1.1,0.9-1.3l0,0c-0.5-0.2-0.7-0.6-0.8-1c0-0.8,0.6-1.3,1.4-1.4
				c0.9-0.1,1.4,0.5,1.4,1.1c0,0.4-0.2,0.9-0.7,1.2l0,0c0.6,0.2,0.9,0.6,1,1.2c0,0.8-0.6,1.4-1.5,1.5
				C306.7,205.5,306.1,205,306.1,204.3z M308.6,204.1c0-0.6-0.4-0.8-1-1c-0.5,0.2-0.8,0.6-0.8,1c0,0.5,0.4,0.9,0.9,0.9
				C308.2,205,308.6,204.6,308.6,204.1z M306.8,201.8c0,0.5,0.4,0.7,0.9,0.8c0.4-0.2,0.7-0.5,0.7-0.9c0-0.4-0.2-0.8-0.8-0.7
				C307.1,201,306.8,201.4,306.8,201.8z"/>
			<path class="st5" d="M312.8,202.6c0,1.6-0.5,2.6-1.5,2.6c-0.9,0.1-1.5-0.8-1.6-2.4c0-1.6,0.6-2.5,1.5-2.6
				C312.2,200.2,312.8,201.1,312.8,202.6z M310.3,202.9c0,1.2,0.4,1.9,1,1.9c0.6,0,0.9-0.8,0.9-2.1c0-1.2-0.3-1.9-1-1.9
				C310.7,200.8,310.3,201.5,310.3,202.9z"/>
		</g>
		<g>
			<path class="st5" d="M313.3,187.4L313.3,187.4l-0.8,0.5l-0.1-0.5l1-0.6l0.5,0l-0.1,4.8l-0.6,0L313.3,187.4z"/>
			<path class="st5" d="M318.6,189c0,1.6-0.6,2.5-1.6,2.6c-0.9,0-1.5-0.9-1.5-2.4c0-1.6,0.7-2.5,1.6-2.5
				C318.1,186.6,318.6,187.5,318.6,189z M316.1,189.1c0,1.2,0.3,2,0.9,1.9c0.6,0,1-0.8,1-2c0-1.2-0.3-2-0.9-1.9
				C316.5,187.1,316.1,187.8,316.1,189.1z"/>
			<path class="st5" d="M322.2,189c0,1.6-0.6,2.5-1.6,2.6c-0.9,0-1.5-0.9-1.5-2.4c0-1.6,0.7-2.5,1.6-2.5
				C321.7,186.5,322.3,187.4,322.2,189z M319.7,189.1c0,1.2,0.3,2,0.9,1.9c0.6,0,1-0.8,1-2c0-1.2-0.3-2-0.9-1.9
				C320.1,187.1,319.7,187.8,319.7,189.1z"/>
		</g>
		<g>
			<path class="st5" d="M326.6,175.8L326.6,175.8l-0.8,0.4l-0.1-0.5l1-0.5l0.5,0l-0.4,4.8l-0.6,0L326.6,175.8z"/>
			<path class="st5" d="M328.5,180.1l0-0.4l0.5-0.5c1.3-1.1,1.8-1.7,1.9-2.4c0-0.5-0.2-0.9-0.8-1c-0.4,0-0.8,0.2-1,0.4l-0.2-0.5
				c0.3-0.3,0.8-0.4,1.3-0.4c1,0.1,1.4,0.8,1.3,1.5c-0.1,0.9-0.7,1.6-1.8,2.5l-0.4,0.3l0,0l2.1,0.1l0,0.5L328.5,180.1z"/>
			<path class="st5" d="M335.4,178c-0.1,1.6-0.8,2.5-1.8,2.4c-0.9,0-1.4-1-1.3-2.5c0.1-1.6,0.8-2.5,1.8-2.4
				C335,175.5,335.5,176.5,335.4,178z M332.9,177.9c-0.1,1.2,0.2,2,0.8,2c0.6,0,1-0.7,1.1-1.9c0.1-1.2-0.1-2-0.8-2
				C333.5,176,333,176.6,332.9,177.9z"/>
		</g>
	</g>
</g>
</svg>
